# xmcd
# Track frame offsets:
# 150
# 18285
# 33583
# 47133
# 62831
# 75237
# 93758
# 108376
# 125527
# 142181
# 158861
# 176478
# 192480
# 207213
# 229261
# 247169
#
# Disc length: 3464 seconds
# Revision: 0
# Processed by: cddbd v1.5.1PL0 Copyright (c) Steve Scherf et al.
# Submitted via: VisiTrax 2.9.10.228 - For more info visit www.synapsa.com
#
DISCID=dc0d8610
DTITLE=Various Artist - Country Fever Vol 9
DYEAR=2005
DGENRE=Country
TTITLE0=Clint Black - No Time To Kill
TTITLE1=Confederate Railroad - Jesus And Mama
TTITLE2=Diamond Rio - In A Week Or Two
TTITLE3=Tracy Lawrence - Texas Tornado
TTITLE4=Lorrie Morgan - What Part Of No
TTITLE5=Colin Raye - One Boy One Girl
TTITLE6=Reba McEntire - The Greatest Man I Ever Known
TTITLE7=Neal McCoy - No Doubt About It
TTITLE8=Boy Howdy - She'd Give Anything
TTITLE9=Ty Herndon - What Mattered Most
TTITLE10=Wynonna - I Saw The Light
TTITLE11=Paul Overstreet - Daddy's Come Around
TTITLE12=Rick Trevino - She Can't Say I Didn't Cry
TTITLE13=Tim McGraw - Please Remember Me
TTITLE14=Vince Gill - I Still Believe In You
TTITLE15=Trish Yearwood - Xxx's And Ooo's
EXTD=
EXTT0=
EXTT1=
EXTT2=
EXTT3=
EXTT4=
EXTT5=
EXTT6=
EXTT7=
EXTT8=
EXTT9=
EXTT10=
EXTT11=
EXTT12=
EXTT13=
EXTT14=
EXTT15=
PLAYORDER=
